<?xml version="1.0" encoding="utf-8"?>
<!-- Generator: Adobe Illustrator 21.0.0, SVG Export Plug-In . SVG Version: 6.00 Build 0)  -->
<svg version="1.1" id="Capa_1" xmlns="http://www.w3.org/2000/svg" xmlns:xlink="http://www.w3.org/1999/xlink" x="0px" y="0px"
	 viewBox="0 0 399 399" style="enable-background:new 0 0 399 399;" xml:space="preserve">
<style type="text/css">
	.st0{fill:#FFA200;}
</style>
<path class="st0" d="M199.5,0C89.3,0,0,89.3,0,199.5S89.3,399,199.5,399S399,309.7,399,199.5S309.7,0,199.5,0z M150.5,148.5
	c16,0,28.9,13,28.9,28.9c0,16-13,28.9-28.9,28.9s-28.9-13-28.9-28.9C121.5,161.5,134.5,148.5,150.5,148.5z M172.3,289.9
	c0,5.8-4.7,10.5-10.5,10.5h-29c-5.8,0-10.5-4.7-10.5-10.5v-23.8c-3.3-0.7-5.8-3.7-5.8-7.2v-40c0-4.1,3.3-7.4,7.4-7.4h3.3
	c6.6,4.6,14.7,7.3,23.4,7.3c6.7,0,12.9-1.6,18.5-4.4c2,1.9,3.3,4.6,3.3,7.7V289.9z M313,215.5c0,8.2-6.7,14.9-14.9,14.9H181.2v-2.3
	c0.2-0.2,0.5-0.4,0.7-0.6l37.7-37.7c2.4-2.4,2.4-6.5,0-8.9s-6.5-2.4-8.9,0l-29.8,29.8c-0.4-1.3-1-2.5-1.9-3.5
	c7.8-7.5,12.7-18.1,12.7-29.8c0-22.8-18.5-41.3-41.3-41.3c-1.2,0-2.4,0.1-3.6,0.2v-22.9c0-8.2,6.7-14.9,14.9-14.9h136.3
	c8.2,0,14.9,6.7,14.9,14.9V215.5z"/>
</svg>
